<?xml version="1.0" encoding="utf-8"?>
<!-- Generator: Adobe Illustrator 24.1.3, SVG Export Plug-In . SVG Version: 6.00 Build 0)  -->
<svg version="1.1" id="Layer_1" xmlns="http://www.w3.org/2000/svg" xmlns:xlink="http://www.w3.org/1999/xlink" x="0px" y="0px"
	 viewBox="0 0 345.78 361.64" style="enable-background:new 0 0 345.78 361.64;" xml:space="preserve">
<style type="text/css">
	.st0{fill:#E12726;}
	.st1{fill:#E65D41;}
	.st2{fill:#C3201F;}
	.st3{fill:#00873E;}
	.st4{fill:#007B37;}
</style>
<g>
	<g>
		<path class="st0" d="M309,109.06c-26.65-30.56-72.74-44.28-111.19-30.13c-8.15,3-41.71,3-49.85,0
			c-38.44-14.15-84.53-0.43-111.19,30.13C5.12,145.36-4.74,193.89,2.02,239.65c8.6,58.17,41.08,98.02,101.24,115.92
			c33.59,10,46.53,4.63,69.62,4.63c23.09,0,36.03,5.36,69.62-4.63c60.16-17.9,92.64-57.75,101.24-115.92
			C350.52,193.89,340.65,145.36,309,109.06z"/>
		<circle class="st1" cx="87.26" cy="157.24" r="34.02"/>
		<g>
			<path class="st2" d="M309,109.06c-26.65-30.56-72.74-44.28-111.19-30.13c-8.15,3-41.71,3-49.85,0
				c-12.65-4.66-26.13-6.24-39.47-5.26c21.94,4.77,22.7,32.55,91.46,27.46c63.9-4.74,111.07,90.12,74.72,168.24
				c-22.58,48.52-99.65,81.35-200.83,74.57c8.96,4.55,18.73,8.45,29.42,11.63c33.59,10,46.53,4.63,69.62,4.63s36.03,5.36,69.62-4.63
				c60.16-17.9,92.64-57.75,101.24-115.92C350.52,193.89,340.65,145.36,309,109.06z"/>
		</g>
	</g>
	<g>
		<path class="st3" d="M171.64,64.37c-6.34-16-22.06-25.66-39.19-27.37c8.24,7.94,14.25,14.71,17.02,28.56
			c-8.98-5.05-33.25-8.71-46.57,0.79c17.72,1.99,27.55,5.95,37.86,17.81c0,0-7.22,6.68-8.71,14.05c-1.06,5.26,0.54,17.3,0.54,17.3
			c10.94-15.52,37.06-7.6,38.25-23.83c0,0,26.92,5.15,37.21,23.75c1.98-24.54-9.9-28.9-9.9-28.9c11.35-8.18,32.59-2.37,44.71,1.39
			c-7.89-11.67-25.23-21.58-41.06-19.45c6.36-11.54,17.66-18.02,30.78-19.31C212.76,42.35,184.6,42.64,171.64,64.37L171.64,64.37z"
			/>
	</g>
	<g>
		<path class="st4" d="M184.67,0.02c-21.46,16.95-19.14,58.16-16.61,77.87c1.55,0.77,3.47,0.95,5.61-0.42
			c0.07-11.94,0.96-30.53,5.4-42.99c6.39-17.94,16.46-23.34,16.46-23.34C195.54-0.91,184.67,0.02,184.67,0.02z"/>
	</g>
</g>
</svg>
